<svg width="15" height="14" viewBox="0 0 15 14" fill="none" xmlns="http://www.w3.org/2000/svg">
<path d="M1.11079 14C0.890415 14 0.705693 13.9255 0.556619 13.7764C0.407545 13.6273 0.333008 13.4426 0.333008 13.2222C0.333008 13.0019 0.407545 12.8171 0.556619 12.6681C0.705693 12.519 0.890415 12.4444 1.11079 12.4444H11.9997C12.22 12.4444 12.4048 12.519 12.5538 12.6681C12.7029 12.8171 12.7775 13.0019 12.7775 13.2222C12.7775 13.4426 12.7029 13.6273 12.5538 13.7764C12.4048 13.9255 12.22 14 11.9997 14H1.11079ZM3.44412 10.8889C2.58856 10.8889 1.85616 10.5843 1.2469 9.975C0.637637 9.36574 0.333008 8.63333 0.333008 7.77778V1.55556C0.333008 1.12778 0.485323 0.761574 0.789952 0.456944C1.09458 0.152315 1.46079 0 1.88856 0H12.7775C13.2052 0 13.5714 0.152315 13.8761 0.456944C14.1807 0.761574 14.333 1.12778 14.333 1.55556V3.88889C14.333 4.31667 14.1807 4.68287 13.8761 4.9875C13.5714 5.29213 13.2052 5.44444 12.7775 5.44444H11.2219V7.77778C11.2219 8.63333 10.9173 9.36574 10.308 9.975C9.69875 10.5843 8.96634 10.8889 8.11079 10.8889H3.44412ZM11.2219 3.88889H12.7775V1.55556H11.2219V3.88889Z" fill="#FF6200"/>
</svg>
