<svg width="16" height="15" viewBox="0 0 16 15" fill="none" xmlns="http://www.w3.org/2000/svg">
<path d="M15.0518 6.51111V12.6944C15.0518 13.1222 14.9056 13.4884 14.6132 13.7931C14.3208 14.0977 13.9694 14.25 13.5588 14.25H3.10784C2.69727 14.25 2.34579 14.0977 2.05341 13.7931C1.76104 13.4884 1.61485 13.1222 1.61485 12.6944V6.51111C1.32869 6.23889 1.10785 5.88889 0.952333 5.46111C0.796813 5.03333 0.793703 4.56667 0.943002 4.06111L1.72682 1.41667C1.82636 1.07963 2.00365 0.800926 2.2587 0.580556C2.51375 0.360185 2.80924 0.25 3.14517 0.25H13.5215C13.8574 0.25 14.1498 0.356944 14.3986 0.570833C14.6474 0.784722 14.8278 1.06667 14.9398 1.41667L15.7236 4.06111C15.8729 4.56667 15.8698 5.02685 15.7143 5.44167C15.5588 5.85648 15.3379 6.21296 15.0518 6.51111ZM9.9756 5.69444C10.3115 5.69444 10.5666 5.57454 10.7408 5.33472C10.9149 5.09491 10.9834 4.82593 10.946 4.52778L10.5355 1.80556H9.07981V4.68333C9.07981 4.95556 9.1669 5.19213 9.34108 5.39306C9.51527 5.59398 9.72677 5.69444 9.9756 5.69444ZM6.61637 5.69444C6.90253 5.69444 7.13581 5.59398 7.31621 5.39306C7.49662 5.19213 7.58682 4.95556 7.58682 4.68333V1.80556H6.13115L5.72058 4.52778C5.67081 4.83889 5.73613 5.11111 5.91653 5.34444C6.09694 5.57778 6.33022 5.69444 6.61637 5.69444ZM3.29446 5.69444C3.51841 5.69444 3.71437 5.61019 3.88233 5.44167C4.05029 5.27315 4.15294 5.05926 4.19026 4.8L4.60083 1.80556H3.14517L2.39867 4.41111C2.32402 4.67037 2.36445 4.94907 2.51997 5.24722C2.6755 5.54537 2.93366 5.69444 3.29446 5.69444ZM13.3722 5.69444C13.733 5.69444 13.9942 5.54537 14.156 5.24722C14.3177 4.94907 14.355 4.67037 14.268 4.41111L13.4841 1.80556H12.0658L12.4764 4.8C12.5137 5.05926 12.6163 5.27315 12.7843 5.44167C12.9523 5.61019 13.1482 5.69444 13.3722 5.69444ZM5.72058 11.9167H7.21357C7.3131 11.9167 7.40019 11.8778 7.47484 11.8C7.54949 11.7222 7.58682 11.6315 7.58682 11.5278C7.58682 11.4241 7.54949 11.3333 7.47484 11.2556C7.40019 11.1778 7.3131 11.1389 7.21357 11.1389H6.09382V10.3611H7.21357C7.3131 10.3611 7.40019 10.3222 7.47484 10.2444C7.54949 10.1667 7.58682 10.0759 7.58682 9.97222V8.41667C7.58682 8.31296 7.54949 8.22222 7.47484 8.14444C7.40019 8.06667 7.3131 8.02778 7.21357 8.02778H5.72058C5.62104 8.02778 5.53395 8.06667 5.4593 8.14444C5.38465 8.22222 5.34733 8.31296 5.34733 8.41667C5.34733 8.52037 5.38465 8.61111 5.4593 8.68889C5.53395 8.76667 5.62104 8.80556 5.72058 8.80556H6.84032V9.58333H5.72058C5.62104 9.58333 5.53395 9.62222 5.4593 9.7C5.38465 9.77778 5.34733 9.86852 5.34733 9.97222V11.5278C5.34733 11.6315 5.38465 11.7222 5.4593 11.8C5.53395 11.8778 5.62104 11.9167 5.72058 11.9167ZM10.5728 10.3611V11.5278C10.5728 11.6315 10.6101 11.7222 10.6848 11.8C10.7594 11.8778 10.8465 11.9167 10.946 11.9167C11.0456 11.9167 11.1327 11.8778 11.2073 11.8C11.282 11.7222 11.3193 11.6315 11.3193 11.5278V8.41667C11.3193 8.31296 11.282 8.22222 11.2073 8.14444C11.1327 8.06667 11.0456 8.02778 10.946 8.02778C10.8465 8.02778 10.7594 8.06667 10.6848 8.14444C10.6101 8.22222 10.5728 8.31296 10.5728 8.41667V9.58333H9.82631V8.41667C9.82631 8.31296 9.78898 8.22222 9.71433 8.14444C9.63968 8.06667 9.55259 8.02778 9.45306 8.02778C9.35352 8.02778 9.26643 8.06667 9.19178 8.14444C9.11713 8.22222 9.07981 8.31296 9.07981 8.41667V9.97222C9.07981 10.0759 9.11713 10.1667 9.19178 10.2444C9.26643 10.3222 9.35352 10.3611 9.45306 10.3611H10.5728Z" fill="#FF6200"/>
</svg>
