<svg width="18" height="10" viewBox="0 0 18 10" fill="none" xmlns="http://www.w3.org/2000/svg">
<path d="M0.75 9.25C0.5375 9.25 0.359375 9.17813 0.215625 9.03438C0.071875 8.89062 0 8.7125 0 8.5V8.06875C0 7.53125 0.275 7.09375 0.825 6.75625C1.375 6.41875 2.1 6.25 3 6.25C3.1625 6.25 3.31875 6.25313 3.46875 6.25938C3.61875 6.26563 3.7625 6.28125 3.9 6.30625C3.725 6.56875 3.59375 6.84375 3.50625 7.13125C3.41875 7.41875 3.375 7.71875 3.375 8.03125V9.25H0.75ZM5.25 9.25C5.0375 9.25 4.85938 9.17813 4.71563 9.03438C4.57188 8.89062 4.5 8.7125 4.5 8.5V8.03125C4.5 7.63125 4.60938 7.26563 4.82812 6.93438C5.04688 6.60313 5.35625 6.3125 5.75625 6.0625C6.15625 5.8125 6.63438 5.625 7.19063 5.5C7.74688 5.375 8.35 5.3125 9 5.3125C9.6625 5.3125 10.2719 5.375 10.8281 5.5C11.3844 5.625 11.8625 5.8125 12.2625 6.0625C12.6625 6.3125 12.9688 6.60313 13.1813 6.93438C13.3938 7.26563 13.5 7.63125 13.5 8.03125V8.5C13.5 8.7125 13.4281 8.89062 13.2844 9.03438C13.1406 9.17813 12.9625 9.25 12.75 9.25H5.25ZM14.625 9.25V8.03125C14.625 7.70625 14.5844 7.4 14.5031 7.1125C14.4219 6.825 14.3 6.55625 14.1375 6.30625C14.275 6.28125 14.4156 6.26563 14.5594 6.25938C14.7031 6.25313 14.85 6.25 15 6.25C15.9 6.25 16.625 6.41563 17.175 6.74688C17.725 7.07813 18 7.51875 18 8.06875V8.5C18 8.7125 17.9281 8.89062 17.7844 9.03438C17.6406 9.17813 17.4625 9.25 17.25 9.25H14.625ZM3 5.5C2.5875 5.5 2.23438 5.35313 1.94063 5.05938C1.64688 4.76562 1.5 4.4125 1.5 4C1.5 3.575 1.64688 3.21875 1.94063 2.93125C2.23438 2.64375 2.5875 2.5 3 2.5C3.425 2.5 3.78125 2.64375 4.06875 2.93125C4.35625 3.21875 4.5 3.575 4.5 4C4.5 4.4125 4.35625 4.76562 4.06875 5.05938C3.78125 5.35313 3.425 5.5 3 5.5ZM15 5.5C14.5875 5.5 14.2344 5.35313 13.9406 5.05938C13.6469 4.76562 13.5 4.4125 13.5 4C13.5 3.575 13.6469 3.21875 13.9406 2.93125C14.2344 2.64375 14.5875 2.5 15 2.5C15.425 2.5 15.7813 2.64375 16.0688 2.93125C16.3563 3.21875 16.5 3.575 16.5 4C16.5 4.4125 16.3563 4.76562 16.0688 5.05938C15.7813 5.35313 15.425 5.5 15 5.5ZM9 4.75C8.375 4.75 7.84375 4.53125 7.40625 4.09375C6.96875 3.65625 6.75 3.125 6.75 2.5C6.75 1.8625 6.96875 1.32812 7.40625 0.896875C7.84375 0.465625 8.375 0.25 9 0.25C9.6375 0.25 10.1719 0.465625 10.6031 0.896875C11.0344 1.32812 11.25 1.8625 11.25 2.5C11.25 3.125 11.0344 3.65625 10.6031 4.09375C10.1719 4.53125 9.6375 4.75 9 4.75Z" fill="#FF6200"/>
</svg>
