<svg width="15" height="13" viewBox="0 0 15 13" fill="none" xmlns="http://www.w3.org/2000/svg">
<path d="M5.29695 4.18421H9.36968L7.4424 0.5H7.22422L5.29695 4.18421ZM6.78786 12.5V5.23684H0.515131L6.78786 12.5ZM7.87877 12.5L14.1515 5.23684H7.87877V12.5ZM10.5697 4.18421H14.3333L12.8242 1.27193C12.6909 1.03801 12.5121 0.850877 12.2879 0.710526C12.0636 0.570175 11.8121 0.5 11.5333 0.5H8.67877L10.5697 4.18421ZM0.333313 4.18421H4.09695L5.98786 0.5H3.13331C2.85453 0.5 2.60301 0.570175 2.37877 0.710526C2.15453 0.850877 1.97574 1.03801 1.8424 1.27193L0.333313 4.18421Z" fill="#FF6200"/>
</svg>
