<svg width="12" height="15" viewBox="0 0 12 15" fill="none" xmlns="http://www.w3.org/2000/svg">
<path d="M2.66667 15C2.47778 15 2.31944 14.9281 2.19167 14.7844C2.06389 14.6406 2 14.4625 2 14.25V8.1375C1.4 7.9625 0.916667 7.60625 0.55 7.06875C0.183333 6.53125 0 5.925 0 5.25V0.75C0 0.5375 0.0638889 0.359375 0.191667 0.215625C0.319444 0.071875 0.477778 0 0.666667 0C0.855556 0 1.01389 0.071875 1.14167 0.215625C1.26944 0.359375 1.33333 0.5375 1.33333 0.75V4.5H2V0.75C2 0.5375 2.06389 0.359375 2.19167 0.215625C2.31944 0.071875 2.47778 0 2.66667 0C2.85556 0 3.01389 0.071875 3.14167 0.215625C3.26944 0.359375 3.33333 0.5375 3.33333 0.75V4.5H4V0.75C4 0.5375 4.06389 0.359375 4.19167 0.215625C4.31944 0.071875 4.47778 0 4.66667 0C4.85556 0 5.01389 0.071875 5.14167 0.215625C5.26944 0.359375 5.33333 0.5375 5.33333 0.75V5.25C5.33333 5.925 5.15 6.53125 4.78333 7.06875C4.41667 7.60625 3.93333 7.9625 3.33333 8.1375V14.25C3.33333 14.4625 3.26944 14.6406 3.14167 14.7844C3.01389 14.9281 2.85556 15 2.66667 15ZM9.33333 15C9.14444 15 8.98611 14.9281 8.85833 14.7844C8.73056 14.6406 8.66667 14.4625 8.66667 14.25V7.85625C8.06667 7.63125 7.58333 7.15938 7.21667 6.44063C6.85 5.72188 6.66667 4.90625 6.66667 3.99375C6.66667 2.88125 6.92778 1.9375 7.45 1.1625C7.97222 0.3875 8.6 0 9.33333 0C10.0667 0 10.6944 0.390625 11.2167 1.17188C11.7389 1.95313 12 2.9 12 4.0125C12 4.925 11.8167 5.7375 11.45 6.45C11.0833 7.1625 10.6 7.63125 10 7.85625V14.25C10 14.4625 9.93611 14.6406 9.80833 14.7844C9.68056 14.9281 9.52222 15 9.33333 15Z" fill="#FF6200"/>
</svg>
