<svg width="15" height="11" viewBox="0 0 15 11" fill="none" xmlns="http://www.w3.org/2000/svg">
<path d="M0.5 9.78572V6.21429C0.5 5.89286 0.564167 5.60119 0.6925 5.33929C0.820833 5.07738 0.99 4.84524 1.2 4.64286V2.64286C1.2 2.04762 1.40417 1.54167 1.8125 1.125C2.22083 0.708333 2.71667 0.5 3.3 0.5H6.1C6.36833 0.5 6.61917 0.550595 6.8525 0.651786C7.08583 0.752976 7.30167 0.892857 7.5 1.07143C7.69833 0.892857 7.91417 0.752976 8.1475 0.651786C8.38083 0.550595 8.63167 0.5 8.9 0.5H11.7C12.2833 0.5 12.7792 0.708333 13.1875 1.125C13.5958 1.54167 13.8 2.04762 13.8 2.64286V4.64286C14.01 4.84524 14.1792 5.07738 14.3075 5.33929C14.4358 5.60119 14.5 5.89286 14.5 6.21429V9.78572C14.5 9.9881 14.4329 10.1577 14.2987 10.2946C14.1646 10.4315 13.9983 10.5 13.8 10.5C13.6017 10.5 13.4354 10.4315 13.3013 10.2946C13.1671 10.1577 13.1 9.9881 13.1 9.78572V9.07143H1.9V9.78572C1.9 9.9881 1.83292 10.1577 1.69875 10.2946C1.56458 10.4315 1.39833 10.5 1.2 10.5C1.00167 10.5 0.835417 10.4315 0.70125 10.2946C0.567083 10.1577 0.5 9.9881 0.5 9.78572ZM8.2 4.07143H12.4V2.64286C12.4 2.44048 12.3329 2.27083 12.1988 2.13393C12.0646 1.99702 11.8983 1.92857 11.7 1.92857H8.9C8.70167 1.92857 8.53542 1.99702 8.40125 2.13393C8.26708 2.27083 8.2 2.44048 8.2 2.64286V4.07143ZM2.6 4.07143H6.8V2.64286C6.8 2.44048 6.73292 2.27083 6.59875 2.13393C6.46458 1.99702 6.29833 1.92857 6.1 1.92857H3.3C3.10167 1.92857 2.93542 1.99702 2.80125 2.13393C2.66708 2.27083 2.6 2.44048 2.6 2.64286V4.07143Z" fill="#FF6200"/>
</svg>
