<svg width="13" height="15" viewBox="0 0 13 15" fill="none" xmlns="http://www.w3.org/2000/svg">
<path d="M3.29169 14.5C2.56669 14.5 1.94794 14.2608 1.43544 13.7825C0.922937 13.3042 0.666687 12.7267 0.666687 12.05V2.95C0.666687 2.27333 0.922937 1.69583 1.43544 1.2175C1.94794 0.739167 2.56669 0.5 3.29169 0.5H11.1667C11.5792 0.5 11.9323 0.637083 12.2261 0.91125C12.5198 1.18542 12.6667 1.515 12.6667 1.9V10.6675C12.6667 10.7608 12.6261 10.8454 12.5448 10.9213C12.4636 10.9971 12.3167 11.0817 12.1042 11.175C11.9292 11.2567 11.7917 11.3733 11.6917 11.525C11.5917 11.6767 11.5417 11.8517 11.5417 12.05C11.5417 12.2483 11.5917 12.4263 11.6917 12.5837C11.7917 12.7413 11.9292 12.855 12.1042 12.925C12.2792 12.995 12.4167 13.0913 12.5167 13.2137C12.6167 13.3363 12.6667 13.4675 12.6667 13.6075V13.7825C12.6667 13.9808 12.5948 14.15 12.4511 14.29C12.3073 14.43 12.1292 14.5 11.9167 14.5H3.29169ZM4.41669 9.6C4.62919 9.6 4.80731 9.53292 4.95106 9.39875C5.09481 9.26458 5.16669 9.09833 5.16669 8.9V2.6C5.16669 2.40167 5.09481 2.23542 4.95106 2.10125C4.80731 1.96708 4.62919 1.9 4.41669 1.9C4.20419 1.9 4.02606 1.96708 3.88231 2.10125C3.73856 2.23542 3.66669 2.40167 3.66669 2.6V8.9C3.66669 9.09833 3.73856 9.26458 3.88231 9.39875C4.02606 9.53292 4.20419 9.6 4.41669 9.6ZM3.29169 13.1H10.2854C10.2104 12.9367 10.1511 12.7704 10.1073 12.6012C10.0636 12.4321 10.0417 12.2483 10.0417 12.05C10.0417 11.8633 10.0604 11.6825 10.0979 11.5075C10.1354 11.3325 10.1979 11.1633 10.2854 11H3.29169C2.96669 11 2.69794 11.1021 2.48544 11.3062C2.27294 11.5104 2.16669 11.7583 2.16669 12.05C2.16669 12.3533 2.27294 12.6042 2.48544 12.8025C2.69794 13.0008 2.96669 13.1 3.29169 13.1Z" fill="#FF6200"/>
</svg>
