<svg width="12" height="14" viewBox="0 0 12 14" fill="none" xmlns="http://www.w3.org/2000/svg">
<path d="M3.41669 12.5263V12.8947C3.41669 13.2018 3.31643 13.4627 3.11591 13.6776C2.91539 13.8925 2.6719 14 2.38544 14C2.09898 14 1.85549 13.8925 1.65497 13.6776C1.45445 13.4627 1.35419 13.2018 1.35419 12.8947V11.7526C1.14794 11.507 0.981791 11.2338 0.85575 10.9329C0.729708 10.632 0.666687 10.3035 0.666687 9.94737V2.94737C0.666687 1.92807 1.10783 1.18202 1.99012 0.709211C2.87242 0.236404 4.2646 0 6.16669 0C8.13752 0 9.5469 0.227193 10.3948 0.681579C11.2427 1.13596 11.6667 1.89123 11.6667 2.94737V9.94737C11.6667 10.3035 11.6037 10.632 11.4776 10.9329C11.3516 11.2338 11.1854 11.507 10.9792 11.7526V12.8947C10.9792 13.2018 10.8789 13.4627 10.6784 13.6776C10.4779 13.8925 10.2344 14 9.94794 14C9.66148 14 9.41799 13.8925 9.21747 13.6776C9.01695 13.4627 8.91669 13.2018 8.91669 12.8947V12.5263H3.41669ZM2.04169 5.89474H10.2917V3.68421H2.04169V5.89474ZM3.76044 10.3158C4.0469 10.3158 4.29039 10.2083 4.49091 9.99342C4.69143 9.77851 4.79169 9.51754 4.79169 9.21053C4.79169 8.90351 4.69143 8.64254 4.49091 8.42763C4.29039 8.21272 4.0469 8.10526 3.76044 8.10526C3.47398 8.10526 3.23049 8.21272 3.02997 8.42763C2.82945 8.64254 2.72919 8.90351 2.72919 9.21053C2.72919 9.51754 2.82945 9.77851 3.02997 9.99342C3.23049 10.2083 3.47398 10.3158 3.76044 10.3158ZM8.57294 10.3158C8.8594 10.3158 9.10289 10.2083 9.30341 9.99342C9.50393 9.77851 9.60419 9.51754 9.60419 9.21053C9.60419 8.90351 9.50393 8.64254 9.30341 8.42763C9.10289 8.21272 8.8594 8.10526 8.57294 8.10526C8.28648 8.10526 8.04299 8.21272 7.84247 8.42763C7.64195 8.64254 7.54169 8.90351 7.54169 9.21053C7.54169 9.51754 7.64195 9.77851 7.84247 9.99342C8.04299 10.2083 8.28648 10.3158 8.57294 10.3158Z" fill="#FF6200"/>
</svg>
