<svg width="17" height="14" viewBox="0 0 17 14" fill="none" xmlns="http://www.w3.org/2000/svg">
<path d="M2.43331 12.0682C1.99331 12.0682 1.61665 11.9235 1.30331 11.6342C0.98998 11.3449 0.833313 10.9972 0.833313 10.5909V1.72727C0.833313 1.32102 0.98998 0.973248 1.30331 0.683949C1.61665 0.39465 1.99331 0.25 2.43331 0.25H15.2333C15.6733 0.25 16.05 0.39465 16.3633 0.683949C16.6766 0.973248 16.8333 1.32102 16.8333 1.72727V5.54972C16.8333 5.72206 16.77 5.86671 16.6433 5.98366C16.5166 6.10062 16.36 6.15909 16.1733 6.15909C15.7733 6.15909 15.38 6.19295 14.9933 6.26065C14.6066 6.32836 14.2733 6.49148 13.9933 6.75L11.1933 9.35369L10.5933 8.81818C10.1266 8.38731 9.56665 8.17495 8.91331 8.18111C8.25998 8.18726 7.69998 8.40578 7.23331 8.83665C6.80665 9.23059 6.56998 9.65838 6.52331 10.12C6.47665 10.5817 6.57998 11.0279 6.83331 11.4588C6.91331 11.5942 6.91665 11.7296 6.84331 11.8651C6.76998 12.0005 6.65998 12.0682 6.51331 12.0682H2.43331ZM2.43331 3.20455V6.15909H15.2333V3.20455H2.43331ZM11.1933 11.4403L15.1333 7.80256C15.2933 7.65483 15.4833 7.58404 15.7033 7.5902C15.9233 7.59635 16.1133 7.6733 16.2733 7.82102C16.42 7.96875 16.4966 8.1411 16.5033 8.33807C16.51 8.53504 16.4333 8.70739 16.2733 8.85511L11.7533 13.0284C11.6733 13.1023 11.5866 13.1577 11.4933 13.1946C11.4 13.2315 11.3 13.25 11.1933 13.25C11.0866 13.25 10.9866 13.2315 10.8933 13.1946C10.8 13.1577 10.7133 13.1023 10.6333 13.0284L8.35331 10.9233C8.20665 10.7879 8.12998 10.6186 8.12331 10.4155C8.11665 10.2124 8.19331 10.0369 8.35331 9.8892C8.49998 9.75379 8.68331 9.68608 8.90331 9.68608C9.12331 9.68608 9.31331 9.75379 9.47331 9.8892L11.1933 11.4403Z" fill="#FF6200"/>
</svg>
