<svg width="32" height="28" viewBox="0 0 32 28" fill="none" xmlns="http://www.w3.org/2000/svg">
<path d="M2.08755 27.9458C1.81255 27.9458 1.56255 27.877 1.33755 27.7395C1.11255 27.602 0.937551 27.4208 0.812551 27.1958C0.687551 26.9708 0.618801 26.727 0.606301 26.4646C0.593801 26.202 0.662551 25.9458 0.812551 25.6958L14.6875 1.6958C14.8375 1.4458 15.0313 1.2583 15.2688 1.1333C15.5063 1.0083 15.75 0.945801 16 0.945801C16.25 0.945801 16.4938 1.0083 16.7313 1.1333C16.9688 1.2583 17.1625 1.4458 17.3125 1.6958L31.1875 25.6958C31.3375 25.9458 31.4063 26.202 31.3938 26.4646C31.3813 26.727 31.3125 26.9708 31.1875 27.1958C31.0625 27.4208 30.8875 27.602 30.6625 27.7395C30.4375 27.877 30.1875 27.9458 29.9125 27.9458H2.08755ZM16 23.4458C16.425 23.4458 16.7813 23.302 17.0688 23.0145C17.3563 22.727 17.5 22.3708 17.5 21.9458C17.5 21.5208 17.3563 21.1645 17.0688 20.8771C16.7813 20.5896 16.425 20.4458 16 20.4458C15.575 20.4458 15.2188 20.5896 14.9313 20.8771C14.6438 21.1645 14.5 21.5208 14.5 21.9458C14.5 22.3708 14.6438 22.727 14.9313 23.0145C15.2188 23.302 15.575 23.4458 16 23.4458ZM16 18.9458C16.425 18.9458 16.7813 18.802 17.0688 18.5145C17.3563 18.227 17.5 17.8708 17.5 17.4458V12.9458C17.5 12.5208 17.3563 12.1645 17.0688 11.8771C16.7813 11.5896 16.425 11.4458 16 11.4458C15.575 11.4458 15.2188 11.5896 14.9313 11.8771C14.6438 12.1645 14.5 12.5208 14.5 12.9458V17.4458C14.5 17.8708 14.6438 18.227 14.9313 18.5145C15.2188 18.802 15.575 18.9458 16 18.9458Z" fill="#FF6200"/>
</svg>
