<svg width="23" height="25" viewBox="0 0 23 25" fill="none" xmlns="http://www.w3.org/2000/svg">
<path d="M2.75 25C2.0625 25 1.47396 24.7552 0.984375 24.2656C0.494792 23.776 0.25 23.1875 0.25 22.5V5C0.25 4.3125 0.494792 3.72396 0.984375 3.23438C1.47396 2.74479 2.0625 2.5 2.75 2.5H4V1.25C4 0.895833 4.11979 0.598958 4.35938 0.359375C4.59896 0.119792 4.89583 0 5.25 0C5.60417 0 5.90104 0.119792 6.14062 0.359375C6.38021 0.598958 6.5 0.895833 6.5 1.25V2.5H16.5V1.25C16.5 0.895833 16.6198 0.598958 16.8594 0.359375C17.099 0.119792 17.3958 0 17.75 0C18.1042 0 18.401 0.119792 18.6406 0.359375C18.8802 0.598958 19 0.895833 19 1.25V2.5H20.25C20.9375 2.5 21.526 2.74479 22.0156 3.23438C22.5052 3.72396 22.75 4.3125 22.75 5V22.5C22.75 23.1875 22.5052 23.776 22.0156 24.2656C21.526 24.7552 20.9375 25 20.25 25H2.75ZM2.75 22.5H20.25V10H2.75V22.5ZM11.5 15C11.1458 15 10.849 14.8802 10.6094 14.6406C10.3698 14.401 10.25 14.1042 10.25 13.75C10.25 13.3958 10.3698 13.099 10.6094 12.8594C10.849 12.6198 11.1458 12.5 11.5 12.5C11.8542 12.5 12.151 12.6198 12.3906 12.8594C12.6302 13.099 12.75 13.3958 12.75 13.75C12.75 14.1042 12.6302 14.401 12.3906 14.6406C12.151 14.8802 11.8542 15 11.5 15ZM6.5 15C6.14583 15 5.84896 14.8802 5.60938 14.6406C5.36979 14.401 5.25 14.1042 5.25 13.75C5.25 13.3958 5.36979 13.099 5.60938 12.8594C5.84896 12.6198 6.14583 12.5 6.5 12.5C6.85417 12.5 7.15104 12.6198 7.39062 12.8594C7.63021 13.099 7.75 13.3958 7.75 13.75C7.75 14.1042 7.63021 14.401 7.39062 14.6406C7.15104 14.8802 6.85417 15 6.5 15ZM16.5 15C16.1458 15 15.849 14.8802 15.6094 14.6406C15.3698 14.401 15.25 14.1042 15.25 13.75C15.25 13.3958 15.3698 13.099 15.6094 12.8594C15.849 12.6198 16.1458 12.5 16.5 12.5C16.8542 12.5 17.151 12.6198 17.3906 12.8594C17.6302 13.099 17.75 13.3958 17.75 13.75C17.75 14.1042 17.6302 14.401 17.3906 14.6406C17.151 14.8802 16.8542 15 16.5 15ZM11.5 20C11.1458 20 10.849 19.8802 10.6094 19.6406C10.3698 19.401 10.25 19.1042 10.25 18.75C10.25 18.3958 10.3698 18.099 10.6094 17.8594C10.849 17.6198 11.1458 17.5 11.5 17.5C11.8542 17.5 12.151 17.6198 12.3906 17.8594C12.6302 18.099 12.75 18.3958 12.75 18.75C12.75 19.1042 12.6302 19.401 12.3906 19.6406C12.151 19.8802 11.8542 20 11.5 20ZM6.5 20C6.14583 20 5.84896 19.8802 5.60938 19.6406C5.36979 19.401 5.25 19.1042 5.25 18.75C5.25 18.3958 5.36979 18.099 5.60938 17.8594C5.84896 17.6198 6.14583 17.5 6.5 17.5C6.85417 17.5 7.15104 17.6198 7.39062 17.8594C7.63021 18.099 7.75 18.3958 7.75 18.75C7.75 19.1042 7.63021 19.401 7.39062 19.6406C7.15104 19.8802 6.85417 20 6.5 20ZM16.5 20C16.1458 20 15.849 19.8802 15.6094 19.6406C15.3698 19.401 15.25 19.1042 15.25 18.75C15.25 18.3958 15.3698 18.099 15.6094 17.8594C15.849 17.6198 16.1458 17.5 16.5 17.5C16.8542 17.5 17.151 17.6198 17.3906 17.8594C17.6302 18.099 17.75 18.3958 17.75 18.75C17.75 19.1042 17.6302 19.401 17.3906 19.6406C17.151 19.8802 16.8542 20 16.5 20Z" fill="currentColor"/>
</svg>
