<svg width="13" height="15" viewBox="0 0 13 15" fill="none" xmlns="http://www.w3.org/2000/svg">
<path d="M1.83398 14.9995C1.42148 14.9995 1.06836 14.8526 0.774609 14.5589C0.480859 14.2651 0.333984 13.912 0.333984 13.4995V4.49951C0.333984 4.08701 0.480859 3.73389 0.774609 3.44014C1.06836 3.14639 1.42148 2.99951 1.83398 2.99951H3.33398C3.33398 2.17451 3.62773 1.46826 4.21523 0.880762C4.80273 0.293262 5.50898 -0.000488281 6.33398 -0.000488281C7.15898 -0.000488281 7.86523 0.293262 8.45273 0.880762C9.04023 1.46826 9.33398 2.17451 9.33398 2.99951H10.834C11.2465 2.99951 11.5996 3.14639 11.8934 3.44014C12.1871 3.73389 12.334 4.08701 12.334 4.49951V13.4995C12.334 13.912 12.1871 14.2651 11.8934 14.5589C11.5996 14.8526 11.2465 14.9995 10.834 14.9995H1.83398ZM4.83398 2.99951H7.83398C7.83398 2.58701 7.68711 2.23389 7.39336 1.94014C7.09961 1.64639 6.74648 1.49951 6.33398 1.49951C5.92148 1.49951 5.56836 1.64639 5.27461 1.94014C4.98086 2.23389 4.83398 2.58701 4.83398 2.99951ZM8.58398 6.74951C8.79648 6.74951 8.97461 6.67764 9.11836 6.53389C9.26211 6.39014 9.33398 6.21201 9.33398 5.99951V4.49951H7.83398V5.99951C7.83398 6.21201 7.90586 6.39014 8.04961 6.53389C8.19336 6.67764 8.37148 6.74951 8.58398 6.74951ZM4.08398 6.74951C4.29648 6.74951 4.47461 6.67764 4.61836 6.53389C4.76211 6.39014 4.83398 6.21201 4.83398 5.99951V4.49951H3.33398V5.99951C3.33398 6.21201 3.40586 6.39014 3.54961 6.53389C3.69336 6.67764 3.87148 6.74951 4.08398 6.74951Z" fill="#FF6200"/>
</svg>
