<svg width="14" height="10" viewBox="0 0 14 10" fill="none" xmlns="http://www.w3.org/2000/svg">
<path d="M1.38891 9.25C1.18428 9.25 1.01275 9.17813 0.874326 9.03438C0.7359 8.89062 0.666687 8.7125 0.666687 8.5C0.666687 8.2875 0.7359 8.10938 0.874326 7.96563C1.01275 7.82188 1.18428 7.75 1.38891 7.75H12.9445C13.1491 7.75 13.3206 7.82188 13.459 7.96563C13.5975 8.10938 13.6667 8.2875 13.6667 8.5C13.6667 8.7125 13.5975 8.89062 13.459 9.03438C13.3206 9.17813 13.1491 9.25 12.9445 9.25H1.38891ZM1.38891 5.5C1.18428 5.5 1.01275 5.42813 0.874326 5.28438C0.7359 5.14062 0.666687 4.9625 0.666687 4.75C0.666687 4.5375 0.7359 4.35938 0.874326 4.21563C1.01275 4.07188 1.18428 4 1.38891 4H12.9445C13.1491 4 13.3206 4.07188 13.459 4.21563C13.5975 4.35938 13.6667 4.5375 13.6667 4.75C13.6667 4.9625 13.5975 5.14062 13.459 5.28438C13.3206 5.42813 13.1491 5.5 12.9445 5.5H1.38891ZM1.38891 1.75C1.18428 1.75 1.01275 1.67813 0.874326 1.53438C0.7359 1.39062 0.666687 1.2125 0.666687 1C0.666687 0.7875 0.7359 0.609375 0.874326 0.465625C1.01275 0.321875 1.18428 0.25 1.38891 0.25H12.9445C13.1491 0.25 13.3206 0.321875 13.459 0.465625C13.5975 0.609375 13.6667 0.7875 13.6667 1C13.6667 1.2125 13.5975 1.39062 13.459 1.53438C13.3206 1.67813 13.1491 1.75 12.9445 1.75H1.38891Z" fill="#FF6200"/>
</svg>
