<svg width="15" height="13" viewBox="0 0 15 13" fill="none" xmlns="http://www.w3.org/2000/svg">
<path d="M3.3 10.75H11.7L7.5 7.375L3.3 10.75ZM6.5375 2.425C6.47917 2.5625 6.39458 2.675 6.28375 2.7625C6.17292 2.85 6.04167 2.89375 5.89 2.89375C5.69167 2.89375 5.52542 2.82188 5.39125 2.67813C5.25708 2.53438 5.19 2.35625 5.19 2.14375C5.19 2.08125 5.19292 2.02813 5.19875 1.98438C5.20458 1.94063 5.21917 1.89375 5.2425 1.84375C5.44083 1.36875 5.74417 0.984375 6.1525 0.690625C6.56083 0.396875 7.01 0.25 7.5 0.25C8.17667 0.25 8.75417 0.503125 9.2325 1.00938C9.71083 1.51563 9.95 2.13125 9.95 2.85625C9.95 3.44375 9.78958 3.96875 9.46875 4.43125C9.14792 4.89375 8.725 5.2125 8.2 5.3875V6.0625L14.22 10.9C14.3133 10.9625 14.3833 11.0469 14.43 11.1531C14.4767 11.2594 14.5 11.375 14.5 11.5C14.5 11.7125 14.4329 11.8906 14.2987 12.0344C14.1646 12.1781 13.9983 12.25 13.8 12.25H1.2C1.00167 12.25 0.835417 12.1781 0.70125 12.0344C0.567083 11.8906 0.5 11.7125 0.5 11.5C0.5 11.375 0.523333 11.2594 0.57 11.1531C0.616667 11.0469 0.686667 10.9625 0.78 10.9L6.8 6.0625V4.75C6.8 4.5375 6.87 4.35938 7.01 4.21563C7.15 4.07188 7.31917 4 7.5175 4C7.80917 4 8.05417 3.8875 8.2525 3.6625C8.45083 3.4375 8.55 3.16875 8.55 2.85625C8.55 2.54375 8.44792 2.28125 8.24375 2.06875C8.03958 1.85625 7.79167 1.75 7.5 1.75C7.29 1.75 7.0975 1.80938 6.9225 1.92813C6.7475 2.04688 6.61917 2.2125 6.5375 2.425Z" fill="#FF6200"/>
</svg>
