<svg width="20" height="18" viewBox="0 0 20 18" fill="none" xmlns="http://www.w3.org/2000/svg">
<path d="M2.98663 18C2.43663 18 1.9658 17.8042 1.57413 17.4125C1.18247 17.0208 0.986633 16.55 0.986633 16V2C0.986633 1.45 1.18247 0.979167 1.57413 0.5875C1.9658 0.195833 2.43663 0 2.98663 0H16.9866C17.5366 0 18.0075 0.195833 18.3991 0.5875C18.7908 0.979167 18.9866 1.45 18.9866 2H10.9866C9.8033 2 8.8408 2.37083 8.09913 3.1125C7.35747 3.85417 6.98663 4.81667 6.98663 6V12C6.98663 13.1833 7.35747 14.1458 8.09913 14.8875C8.8408 15.6292 9.8033 16 10.9866 16H18.9866C18.9866 16.55 18.7908 17.0208 18.3991 17.4125C18.0075 17.8042 17.5366 18 16.9866 18H2.98663ZM10.9866 14C10.4366 14 9.9658 13.8042 9.57413 13.4125C9.18247 13.0208 8.98663 12.55 8.98663 12V6C8.98663 5.45 9.18247 4.97917 9.57413 4.5875C9.9658 4.19583 10.4366 4 10.9866 4H17.9866C18.5366 4 19.0075 4.19583 19.3991 4.5875C19.7908 4.97917 19.9866 5.45 19.9866 6V12C19.9866 12.55 19.7908 13.0208 19.3991 13.4125C19.0075 13.8042 18.5366 14 17.9866 14H10.9866ZM13.9866 10.5C14.42 10.5 14.7783 10.3583 15.0616 10.075C15.345 9.79167 15.4866 9.43333 15.4866 9C15.4866 8.56667 15.345 8.20833 15.0616 7.925C14.7783 7.64167 14.42 7.5 13.9866 7.5C13.5533 7.5 13.195 7.64167 12.9116 7.925C12.6283 8.20833 12.4866 8.56667 12.4866 9C12.4866 9.43333 12.6283 9.79167 12.9116 10.075C13.195 10.3583 13.5533 10.5 13.9866 10.5Z" fill="#BFBFBF"/>
</svg>
