<svg width="28" height="28" viewBox="0 0 28 28" fill="none" xmlns="http://www.w3.org/2000/svg">
<mask id="mask0_362_19004" style="mask-type:luminance" maskUnits="userSpaceOnUse" x="14" y="11" width="14" height="14">
<path d="M27.208 14.3028C27.208 13.3588 27.1227 12.4517 26.9625 11.5815H14.2703V16.7271H21.5226C21.2098 18.3905 20.261 19.7984 18.8333 20.7424V24.0797H23.1882C25.7369 21.7632 27.2065 18.3536 27.2065 14.3013L27.208 14.3028Z" fill="white"/>
</mask>
<g mask="url(#mask0_362_19004)">
<path d="M34.6952 4.19067H6.78296V31.4709H34.6952V4.19067Z" fill="#3E82F1"/>
</g>
<mask id="mask1_362_19004" style="mask-type:luminance" maskUnits="userSpaceOnUse" x="2" y="16" width="22" height="12">
<path d="M14.2703 27.3034C17.9084 27.3034 20.9599 26.1127 23.1898 24.0799L18.8348 20.7426C17.6286 21.5404 16.0841 22.0131 14.2718 22.0131C10.7624 22.0131 7.79023 19.6731 6.73067 16.5278H2.22754V19.9744C4.44543 24.3222 9.00243 27.3034 14.2703 27.3034Z" fill="white"/>
</mask>
<g mask="url(#mask1_362_19004)">
<path d="M30.677 9.13672H-5.25977V34.6944H30.677V9.13672Z" fill="#32A753"/>
</g>
<mask id="mask2_362_19004" style="mask-type:luminance" maskUnits="userSpaceOnUse" x="0" y="8" width="7" height="12">
<path d="M6.72906 16.5279C6.45968 15.7301 6.30703 14.8777 6.30703 14.0002C6.30703 13.1226 6.45968 12.2702 6.72906 11.4725V8.02588H2.22593C1.31304 9.8223 0.792236 11.8536 0.792236 14.0002C0.792236 16.1467 1.31304 18.178 2.22593 19.9745L6.72906 16.5279Z" fill="white"/>
</mask>
<g mask="url(#mask2_362_19004)">
<path d="M14.2162 0.634766H-6.6936V27.3654H14.2162V0.634766Z" fill="#F9BB00"/>
</g>
<mask id="mask3_362_19004" style="mask-type:luminance" maskUnits="userSpaceOnUse" x="2" y="0" width="22" height="12">
<path d="M14.2703 5.98707C16.2487 5.98707 18.0252 6.65777 19.4214 7.97702L23.287 4.1611C20.9524 2.01455 17.9024 0.696777 14.2703 0.696777C9.00243 0.696777 4.44393 3.67801 2.22754 8.02577L6.73067 11.4724C7.79023 8.32863 10.7609 5.98707 14.2718 5.98707H14.2703Z" fill="white"/>
</mask>
<g mask="url(#mask3_362_19004)">
<path d="M30.7742 -6.69434H-5.25977V18.8633H30.7742V-6.69434Z" fill="#E74133"/>
</g>
</svg>
