<svg width="69" height="25" viewBox="0 0 69 25" fill="none" xmlns="http://www.w3.org/2000/svg">
<g clip-path="url(#clip0_7_1522)">
<path d="M22.6125 22.218H0V18.8928H22.6125V22.218ZM19.9816 5.41042C19.9816 7.78771 19.9303 9.83967 19.8304 11.5612C19.7305 13.2852 19.4871 15.2936 19.1054 17.5915L15.0553 17.2277C15.437 15.1322 15.6753 13.2263 15.7649 11.515C15.8546 9.80124 15.9007 7.77747 15.9007 5.4386H2.32862V2.20312H19.9816V5.40786V5.41042Z" fill="#FF6200"/>
<path d="M36.2153 14.42H24.1546V1.99561H36.2153V14.42ZM44.1054 25H27.0571V16.6872H30.9868V21.7953H44.1054V25ZM28.1125 11.2153H32.283V5.22853H28.1125V11.2153ZM43.2882 7.19594H46.5237V10.5518H43.2882V18.5035H39.3278V0.0307617H43.2882V7.19594Z" fill="#FF6200"/>
<path d="M68.1397 20.5554H65.0835L64.5712 11.8506H61.7891V8.31284H64.5712V0H68.652L68.1397 20.5554Z" fill="#FF6200"/>
<path d="M64.5712 8.31284V0H68.652L68.1397 21.3239H65.0835L64.5712 11.8506H61.7891V8.31284H64.5712Z" fill="#FF6200"/>
<path d="M53.6069 9.76282C53.8093 11.1846 54.2013 12.4885 54.7853 13.6772C55.3694 12.509 55.7562 11.2128 55.9484 9.79356C56.1405 8.37179 56.2353 6.74509 56.2353 4.91089V1.13232H60.0753V4.91089C60.0753 7.59047 60.2982 9.86273 60.7414 11.7277C61.1846 13.5926 62.1324 15.1194 63.5823 16.3081L61.1641 19.2412C59.732 18.0731 58.7048 16.349 58.0797 14.0717C57.3932 16.4694 56.2968 18.255 54.7853 19.4231C53.3149 18.2755 52.2262 16.5412 51.5217 14.2228C50.8966 16.3183 49.9488 17.9117 48.6807 18.9979L46.0498 16.3081C47.0566 15.4627 47.8174 14.438 48.3323 13.2391C48.8472 12.0402 49.1777 10.785 49.3288 9.4759C49.48 8.16686 49.5543 6.64518 49.5543 4.91089V1.13232H53.3021V4.91089C53.3021 6.7246 53.402 8.34106 53.6044 9.76282H53.6069Z" fill="#FF6200"/>
<path d="M68.1294 21.8567H65.1732V24.8129H68.1294V21.8567Z" fill="#FF6200"/>
</g>
<defs>
<clipPath id="clip0_7_1522">
<rect width="68.652" height="25" fill="white"/>
</clipPath>
</defs>
</svg>
