<svg width="20" height="6" viewBox="0 0 20 6" fill="none" xmlns="http://www.w3.org/2000/svg">
<path d="M2.5 1C3.05384 1 3.51555 1.19133 3.91211 1.58789C4.30867 1.98445 4.5 2.44616 4.5 3C4.5 3.55384 4.30867 4.01555 3.91211 4.41211C3.51555 4.80867 3.05384 5 2.5 5C1.94616 5 1.48445 4.80867 1.08789 4.41211C0.691327 4.01555 0.5 3.55384 0.5 3C0.5 2.44616 0.691327 1.98445 1.08789 1.58789C1.48445 1.19133 1.94616 1 2.5 1ZM10 1C10.5538 1 11.0155 1.19133 11.4121 1.58789C11.8087 1.98445 12 2.44616 12 3C12 3.55384 11.8087 4.01555 11.4121 4.41211C11.0155 4.80867 10.5538 5 10 5C9.44616 5 8.98445 4.80867 8.58789 4.41211C8.19133 4.01555 8 3.55384 8 3C8 2.44616 8.19133 1.98445 8.58789 1.58789C8.98445 1.19133 9.44616 1 10 1ZM17.5 1C18.0538 1 18.5155 1.19133 18.9121 1.58789C19.3087 1.98445 19.5 2.44616 19.5 3C19.5 3.55384 19.3087 4.01555 18.9121 4.41211C18.5155 4.80867 18.0538 5 17.5 5C16.9462 5 16.4845 4.80867 16.0879 4.41211C15.6913 4.01555 15.5 3.55384 15.5 3C15.5 2.44616 15.6913 1.98445 16.0879 1.58789C16.4845 1.19133 16.9462 1 17.5 1Z" stroke="black"/>
</svg>
