<svg width="19" height="20" viewBox="0 0 19 20" fill="none" xmlns="http://www.w3.org/2000/svg">
<path d="M2.01337 20C1.46337 20 0.992533 19.8042 0.600867 19.4125C0.2092 19.0208 0.0133667 18.55 0.0133667 18V4C0.0133667 3.45 0.2092 2.97917 0.600867 2.5875C0.992533 2.19583 1.46337 2 2.01337 2H6.21337C6.4467 1.4 6.81337 0.916667 7.31337 0.55C7.81337 0.183333 8.38003 0 9.01337 0C9.6467 0 10.2134 0.183333 10.7134 0.55C11.2134 0.916667 11.58 1.4 11.8134 2H16.0134C16.5634 2 17.0342 2.19583 17.4259 2.5875C17.8175 2.97917 18.0134 3.45 18.0134 4V18C18.0134 18.55 17.8175 19.0208 17.4259 19.4125C17.0342 19.8042 16.5634 20 16.0134 20H2.01337ZM9.01337 3.25C9.23003 3.25 9.4092 3.17917 9.55087 3.0375C9.69253 2.89583 9.76337 2.71667 9.76337 2.5C9.76337 2.28333 9.69253 2.10417 9.55087 1.9625C9.4092 1.82083 9.23003 1.75 9.01337 1.75C8.7967 1.75 8.61753 1.82083 8.47587 1.9625C8.3342 2.10417 8.26337 2.28333 8.26337 2.5C8.26337 2.71667 8.3342 2.89583 8.47587 3.0375C8.61753 3.17917 8.7967 3.25 9.01337 3.25ZM9.01337 12C9.98003 12 10.805 11.6583 11.4884 10.975C12.1717 10.2917 12.5134 9.46667 12.5134 8.5C12.5134 7.53333 12.1717 6.70833 11.4884 6.025C10.805 5.34167 9.98003 5 9.01337 5C8.0467 5 7.2217 5.34167 6.53837 6.025C5.85503 6.70833 5.51337 7.53333 5.51337 8.5C5.51337 9.46667 5.85503 10.2917 6.53837 10.975C7.2217 11.6583 8.0467 12 9.01337 12ZM2.01337 18H16.0134V16.85C15.1134 15.9667 14.0675 15.2708 12.8759 14.7625C11.6842 14.2542 10.3967 14 9.01337 14C7.63003 14 6.34253 14.2542 5.15087 14.7625C3.9592 15.2708 2.91337 15.9667 2.01337 16.85V18Z" fill="#BFBFBF"/>
</svg>
