<svg width="11" height="12" viewBox="0 0 11 12" fill="none" xmlns="http://www.w3.org/2000/svg">
<g clip-path="url(#clip0_412_3541)">
<path d="M0.611111 11.5C0.437963 11.5 0.292824 11.4414 0.175694 11.3243C0.0585648 11.2072 0 11.062 0 10.8889V9.40694C0 9.24398 0.0305556 9.08866 0.0916667 8.94097C0.152778 8.79329 0.239352 8.66343 0.351389 8.55139L8.06667 0.851389C8.18889 0.739352 8.32384 0.652778 8.47153 0.591667C8.61921 0.530556 8.77454 0.5 8.9375 0.5C9.10046 0.5 9.25833 0.530556 9.41111 0.591667C9.56389 0.652778 9.6963 0.744444 9.80833 0.866667L10.6486 1.72222C10.7708 1.83426 10.86 1.96667 10.916 2.11944C10.972 2.27222 11 2.425 11 2.57778C11 2.74074 10.972 2.89606 10.916 3.04375C10.86 3.19144 10.7708 3.32639 10.6486 3.44861L2.94861 11.1486C2.83657 11.2606 2.70671 11.3472 2.55903 11.4083C2.41134 11.4694 2.25602 11.5 2.09306 11.5H0.611111ZM8.92222 3.43333L9.77778 2.57778L8.92222 1.72222L8.06667 2.57778L8.92222 3.43333Z" fill="#1F1F1F"/>
</g>
<defs>
<clipPath id="clip0_412_3541">
<rect width="11" height="11" fill="white" transform="translate(0 0.5)"/>
</clipPath>
</defs>
</svg>
