<svg width="9" height="15" viewBox="0 0 9 15" fill="none" xmlns="http://www.w3.org/2000/svg">
<path d="M5.73664 7.5L0.377863 2.25336C0.125955 2.00673 2.09676e-07 1.69282 2.42998e-07 1.31166C2.76321e-07 0.930493 0.125955 0.616592 0.377863 0.369955C0.629772 0.123318 0.950383 2.49954e-07 1.3397 2.83989e-07C1.72901 3.18024e-07 2.04962 0.123318 2.30153 0.369955L8.62214 6.5583C8.75954 6.69283 8.85687 6.83856 8.91412 6.99552C8.97137 7.15247 9 7.32063 9 7.5C9 7.67937 8.97137 7.84753 8.91412 8.00448C8.85687 8.16144 8.75954 8.30718 8.62214 8.4417L2.30153 14.63C2.04962 14.8767 1.72901 15 1.33969 15C0.950381 15 0.62977 14.8767 0.377862 14.63C0.125954 14.3834 -8.72328e-07 14.0695 -8.39005e-07 13.6883C-8.05683e-07 13.3072 0.125954 12.9933 0.377862 12.7466L5.73664 7.5Z" fill="#757575"/>
</svg>
