<svg width="36" height="37" viewBox="0 0 36 37" fill="none" xmlns="http://www.w3.org/2000/svg">
<path d="M4.08755 31.8369C3.81255 31.8369 3.56255 31.7682 3.33755 31.6307C3.11255 31.4932 2.93755 31.3119 2.81255 31.0869C2.68755 30.8619 2.6188 30.6182 2.6063 30.3557C2.5938 30.0932 2.66255 29.8369 2.81255 29.5869L16.6875 5.58691C16.8375 5.33691 17.0313 5.14941 17.2688 5.02441C17.5063 4.89941 17.75 4.83691 18 4.83691C18.25 4.83691 18.4938 4.89941 18.7313 5.02441C18.9688 5.14941 19.1625 5.33691 19.3125 5.58691L33.1875 29.5869C33.3375 29.8369 33.4063 30.0932 33.3938 30.3557C33.3813 30.6182 33.3125 30.8619 33.1875 31.0869C33.0625 31.3119 32.8875 31.4932 32.6625 31.6307C32.4375 31.7682 32.1875 31.8369 31.9125 31.8369H4.08755ZM18 27.3369C18.425 27.3369 18.7813 27.1932 19.0688 26.9057C19.3563 26.6182 19.5 26.2619 19.5 25.8369C19.5 25.4119 19.3563 25.0557 19.0688 24.7682C18.7813 24.4807 18.425 24.3369 18 24.3369C17.575 24.3369 17.2188 24.4807 16.9313 24.7682C16.6438 25.0557 16.5 25.4119 16.5 25.8369C16.5 26.2619 16.6438 26.6182 16.9313 26.9057C17.2188 27.1932 17.575 27.3369 18 27.3369ZM18 22.8369C18.425 22.8369 18.7813 22.6932 19.0688 22.4057C19.3563 22.1182 19.5 21.7619 19.5 21.3369V16.8369C19.5 16.4119 19.3563 16.0557 19.0688 15.7682C18.7813 15.4807 18.425 15.3369 18 15.3369C17.575 15.3369 17.2188 15.4807 16.9313 15.7682C16.6438 16.0557 16.5 16.4119 16.5 16.8369V21.3369C16.5 21.7619 16.6438 22.1182 16.9313 22.4057C17.2188 22.6932 17.575 22.8369 18 22.8369Z" fill="#FF6200"/>
</svg>
